<svg xmlns="http://www.w3.org/2000/svg" xmlns:xlink="http://www.w3.org/1999/xlink" id="Layer_1" x="0px" y="0px" viewBox="0 0 370.8 113.7" style="enable-background:new 0 0 370.8 113.7;" xml:space="preserve"><style type="text/css">	.st0{fill:#28272C;}	.st1{fill:#00D8B8;}	.st2{fill:url(#SVGID_1_);}	.st3{fill:url(#SVGID_00000155121082394544371910000013046774403412749220_);}	.st4{fill:url(#SVGID_00000114770457424953839440000005140547517430494648_);}	.st5{fill:url(#SVGID_00000107585896010608164660000007881624122340668560_);}	.st6{fill:url(#SVGID_00000090998023723374904020000008675143192848670886_);}	.st7{fill:url(#SVGID_00000122684034960288993840000005277789576680453566_);}	.st8{fill:url(#SVGID_00000145764779633808685270000015102116094913870522_);}	.st9{fill:url(#SVGID_00000040575780313213059920000000280749651473910433_);}	.st10{fill:url(#SVGID_00000046298434605533092830000011139777948836598402_);}	.st11{fill:url(#SVGID_00000031901156021134384930000005350285335243324551_);}</style><g>	<path class="st0" d="M50.3,37.7L50.3,37.7c-3.7-0.4-7.9-0.6-12.4-0.6c-5.3,0-10,1.2-13.9,3.4c-4,2.3-7.1,5.6-9.2,9.7   s-3.2,8.9-3.2,14.3s1.1,10.4,3.2,14.5c2.1,4.2,5.2,7.5,9.2,9.9c3.9,2.3,8.5,3.5,13.6,3.5c3.5,0,6.8-0.5,9.8-1.5   c2.4-0.8,5-2,7.6-3.5v4.3h9.7V40l-1-0.2C58.4,38.8,53.9,38.1,50.3,37.7L50.3,37.7L50.3,37.7z M54.9,47.1v31.1   c-3,1.9-5.8,3.3-8.3,4.1c-2.6,0.9-5.4,1.3-8.3,1.3c-5.2,0-9.3-1.7-12.4-5.1s-4.7-8.1-4.7-13.8s1.5-10.4,4.6-13.8   c3-3.4,7.4-5.1,13-5.1C43.9,45.8,49.3,46.2,54.9,47.1L54.9,47.1L54.9,47.1z"></path>	<path class="st0" d="M81.8,39.7l-1,0.2v51.9h9.7V47.7c5.8-0.6,12.2-0.9,19.1-0.9h1.2v-9.6h-1.2C100.8,37.1,91.4,38,81.8,39.7   L81.8,39.7L81.8,39.7z"></path>	<rect x="122.8" y="38.2" class="st0" width="9.7" height="53.5"></rect>	<path class="st0" d="M127.6,14.9c-1.8,0-3.4,0.6-4.7,1.9c-1.3,1.2-1.9,2.8-1.9,4.7s0.7,3.4,1.9,4.6c1.3,1.2,2.8,1.9,4.7,1.9   c1.9,0,3.4-0.6,4.7-1.9c1.3-1.2,1.9-2.8,1.9-4.6s-0.6-3.5-1.9-4.7C131,15.5,129.4,14.9,127.6,14.9L127.6,14.9z"></path>	<path class="st0" d="M180.2,62.8c-2.7-1-6.5-2.1-11.3-3.1c-3.4-0.8-6-1.5-7.7-2.1c-1.6-0.5-2.8-1.2-3.6-2.1   c-0.7-0.8-1.1-1.8-1.1-3.1c0-2.3,0.8-4.1,2.6-5.3c3.1-2.2,8.9-2.5,16.4-1.1c3.1,0.6,6.1,1.3,9.1,2.3l1.1,0.4l2.7-8.1l-1.1-0.4   c-2.9-1-6.1-1.9-9.6-2.5c-3.5-0.7-6.9-1-10-1c-6.4,0-11.5,1.4-15.2,4.2c-3.8,2.8-5.7,6.8-5.7,11.9c0,4.4,1.5,7.7,4.4,10   c2.8,2.2,7,3.8,12.9,5.1c4.5,0.9,7.8,1.7,9.8,2.3c1.9,0.5,3.5,1.3,4.7,2.4c1.1,0.9,1.7,2.2,1.7,3.8c0,2.3-1,4.1-3,5.4   c-4,2.5-10.5,2.7-18.6,0.8l0,0c-3.6-0.8-7.2-2.1-10.6-3.6l-1.3-0.6l-2.4,8.6l1,0.4c3.6,1.5,7.4,2.8,11.4,3.7   c4,0.9,7.8,1.4,11.2,1.4c6.4,0,11.6-1.4,15.5-4.2c4-2.9,6.1-7.1,6.1-12.5c0-3.4-0.9-6.2-2.7-8.2C185.4,65.5,183,63.9,180.2,62.8   L180.2,62.8L180.2,62.8z"></path>	<path class="st0" d="M247,48.4c-2.1-3.8-5.1-6.8-8.9-8.8l0,0c-3.8-2-8.1-3-12.9-3c-5.2,0-9.9,1.2-14,3.5s-7.3,5.6-9.6,9.8   s-3.4,9.1-3.4,14.5s1.1,10.2,3.4,14.4c2.2,4.2,5.5,7.6,9.8,10c4.2,2.4,9.2,3.6,14.9,3.6c3.5,0,6.8-0.3,9.7-0.9s6.4-1.5,10.3-2.6   l1.1-0.3l-1.6-8.4l-1.2,0.3c-3.8,0.9-7,1.6-9.7,2.1c-2.6,0.5-5.4,0.7-8.3,0.7c-5.1,0-9.3-1.5-12.5-4.3c-2.9-2.6-4.7-6.1-5.4-10.3   h41.1l0.1-1.1c0.2-1.6,0.3-3.6,0.3-5.9C250.1,56.6,249.1,52.2,247,48.4L247,48.4L247,48.4z M241,60.3h-32.7c0.6-4.4,2.3-8,5-10.7   c3-2.9,7-4.4,11.9-4.4s8.4,1.4,11.4,4.4C239.3,52.2,240.8,55.8,241,60.3L241,60.3L241,60.3z"></path></g><g>	<g>		<path class="st1" d="M355.2,50.9c0,2.4-1.8,4.2-4.3,4.2s-4.3-1.8-4.3-4.2s1.8-4.2,4.3-4.2S355.2,48.4,355.2,50.9z M347.2,50.9    c0,2.1,1.6,3.7,3.8,3.7c2.1,0,3.8-1.6,3.8-3.7s-1.6-3.7-3.8-3.7C348.8,47.2,347.2,48.8,347.2,50.9z M352.8,50.1    c0,0.6-0.4,1.1-0.9,1.4l1.3,1.7h-1l-1-1.5c-0.1,0-0.1,0-0.2,0h-0.8v1.5h-0.8v-4.6c0.4,0,1.1,0,1.6,0    C352,48.5,352.8,49.1,352.8,50.1z M350,49.3v1.7h1c0.5,0,1-0.4,1-0.9s-0.5-0.8-1-0.8C350.7,49.3,350.4,49.3,350,49.3z"></path>	</g>	<g>					<linearGradient id="SVGID_1_" gradientUnits="userSpaceOnUse" x1="-1699.1833" y1="-2292.6814" x2="-1728.7162" y2="-2252.033" gradientTransform="matrix(1 0 0 1 2011.033 2347.762)">			<stop offset="0.3708" style="stop-color:#3CDBC0"></stop>			<stop offset="0.8898" style="stop-color:#00A499"></stop>		</linearGradient>		<path class="st2" d="M298.7,45.5c0,0-9.7,4.2-8.9,18.2c0.8,13.5,9.4,24.5,25.4,28.6h-37.6C277.6,92.3,264.1,53.2,298.7,45.5z"></path>					<linearGradient id="SVGID_00000116200905918495052280000009541451217561870466_" gradientUnits="userSpaceOnUse" x1="-1709.6682" y1="-2300.2991" x2="-1739.2009" y2="-2259.6506" gradientTransform="matrix(1 0 0 1 2011.033 2347.762)">			<stop offset="0" style="stop-color:#00A499"></stop>			<stop offset="0.9" style="stop-color:#3CDBC0"></stop>		</linearGradient>		<path style="fill:url(#SVGID_00000116200905918495052280000009541451217561870466_);" d="M298.2,45.8c0.3-0.2,0.5-0.3,0.5-0.3    c-34.5,7.7-21.1,46.8-21.1,46.8h5.6C282.4,90.2,271.9,56.8,298.2,45.8z"></path>	</g>			<linearGradient id="SVGID_00000027566325801627865350000008333905756003857844_" gradientUnits="userSpaceOnUse" x1="-1054.1896" y1="-2809.2227" x2="-1068.1875" y2="-2760.406" gradientTransform="matrix(0.309 -0.9511 0.9511 0.309 3292.9265 -82.0077)">		<stop offset="0.1102" style="stop-color:#00A499"></stop>		<stop offset="0.8398" style="stop-color:#39D2B8"></stop>	</linearGradient>	<path style="fill:url(#SVGID_00000027566325801627865350000008333905756003857844_);" d="M291.9,57.8c0,0,1,10.5,14.5,14.1   c13,3.4,26.2-1.4,35.1-15.4l-11.6,35.8C329.8,92.3,288.5,93,291.9,57.8z"></path>			<linearGradient id="SVGID_00000065050889751322706770000001887890702407537072_" gradientUnits="userSpaceOnUse" x1="-1057.6121" y1="-2809.0161" x2="-1087.1448" y2="-2768.3677" gradientTransform="matrix(0.309 -0.9511 0.9511 0.309 3292.9265 -82.0077)">		<stop offset="0.1" style="stop-color:#3CDBC0"></stop>		<stop offset="1" style="stop-color:#00A499"></stop>	</linearGradient>	<path style="fill:url(#SVGID_00000065050889751322706770000001887890702407537072_);" d="M292,58.3c-0.1-0.3-0.1-0.5-0.1-0.5   c-3.4,35.2,38,34.5,38,34.5l1.7-5.3C329.4,87,294.4,86.7,292,58.3z"></path>			<linearGradient id="SVGID_00000042714641464592971140000014668223489841285006_" gradientUnits="userSpaceOnUse" x1="-257.4368" y1="-2398.8208" x2="-229.1453" y2="-2356.877" gradientTransform="matrix(-0.809 -0.5878 0.5878 -0.809 1525.0966 -2020.9048)">		<stop offset="0" style="stop-color:#3CDBC0"></stop>		<stop offset="0.8898" style="stop-color:#00A499"></stop>	</linearGradient>	<path style="fill:url(#SVGID_00000042714641464592971140000014668223489841285006_);" d="M301.7,67.8c0,0,10.3,2.3,17.9-9.4   c7.3-11.3,6.8-25.3-3.8-38.1l30.4,22.1C346.2,42.3,334.1,81.8,301.7,67.8z"></path>			<linearGradient id="SVGID_00000171713240766692175380000017943911441049884833_" gradientUnits="userSpaceOnUse" x1="-235.2016" y1="-2406.9216" x2="-264.7343" y2="-2366.2734" gradientTransform="matrix(-0.809 -0.5878 0.5878 -0.809 1525.0966 -2020.9048)">		<stop offset="0" style="stop-color:#00A499"></stop>		<stop offset="0.51" style="stop-color:#00D8B8"></stop>	</linearGradient>	<path style="fill:url(#SVGID_00000171713240766692175380000017943911441049884833_);" d="M302.2,67.8c-0.3,0-0.5-0.1-0.5-0.1   c32.4,14.1,44.6-25.5,44.6-25.5l-4.5-3.3C341.1,41.1,329.9,74.3,302.2,67.8z"></path>	<g>					<linearGradient id="SVGID_00000091735929780929202150000003071486711048696741_" gradientUnits="userSpaceOnUse" x1="-320.968" y1="-1503.2402" x2="-350.5007" y2="-1462.5918" gradientTransform="matrix(-0.8036 0.5952 -0.5952 -0.8036 -854.3863 -955.1267)">			<stop offset="0.3708" style="stop-color:#3CDBC0"></stop>			<stop offset="0.8898" style="stop-color:#00A499"></stop>		</linearGradient>		<path style="fill:url(#SVGID_00000091735929780929202150000003071486711048696741_);" d="M314.6,61.6c0,0,5.3-9.2-3.6-19.9    c-8.6-10.4-22.1-14.1-37.5-7.9l30.2-22.4C303.7,11.5,337.8,34.9,314.6,61.6z"></path>					<linearGradient id="SVGID_00000020365020463686033360000001285434213246170516_" gradientUnits="userSpaceOnUse" x1="-331.4528" y1="-1510.8578" x2="-360.9855" y2="-1470.2095" gradientTransform="matrix(-0.8036 0.5952 -0.5952 -0.8036 -854.3863 -955.1267)">			<stop offset="0" style="stop-color:#00A499"></stop>			<stop offset="0.9" style="stop-color:#3CDBC0"></stop>		</linearGradient>		<path style="fill:url(#SVGID_00000020365020463686033360000001285434213246170516_);" d="M314.8,61.1c-0.1,0.3-0.2,0.5-0.2,0.5    c23.2-26.7-10.9-50.1-10.9-50.1l-4.5,3.3C301,16.1,329.3,36.6,314.8,61.1z"></path>	</g>			<linearGradient id="SVGID_00000126317136227954270790000006725395166265009034_" gradientUnits="userSpaceOnUse" x1="-1207.177" y1="-1355.0172" x2="-1164.4297" y2="-1335.9849" gradientTransform="matrix(0.309 0.9511 -0.9511 0.309 -627.1406 1599.2416)">		<stop offset="0.1102" style="stop-color:#00A499"></stop>		<stop offset="0.231" style="stop-color:#06AA9D"></stop>		<stop offset="0.3941" style="stop-color:#17B9A8"></stop>		<stop offset="0.5808" style="stop-color:#33D3BA"></stop>		<stop offset="0.6292" style="stop-color:#3CDBC0"></stop>	</linearGradient>	<path style="fill:url(#SVGID_00000126317136227954270790000006725395166265009034_);" d="M312.7,47.7c0,0-7-8-20-2.9   c-12.6,4.9-20.4,16.5-19.4,33l-11.6-35.8C261.7,42.1,294.7,17.3,312.7,47.7z"></path>			<linearGradient id="SVGID_00000096782163121878027810000016534276094239913650_" gradientUnits="userSpaceOnUse" x1="-1182.448" y1="-1371.3336" x2="-1211.9807" y2="-1330.6853" gradientTransform="matrix(0.309 0.9511 -0.9511 0.309 -627.1406 1599.2416)">		<stop offset="0" style="stop-color:#00A499"></stop>		<stop offset="0.9" style="stop-color:#3CDBC0"></stop>	</linearGradient>	<path style="fill:url(#SVGID_00000096782163121878027810000016534276094239913650_);" d="M312.3,47.4c0.3,0.2,0.4,0.4,0.4,0.4   c-18-30.5-51-5.6-51-5.6l1.7,5.3C265.2,46.1,293.7,25.8,312.3,47.4z"></path></g></svg>